<svg xmlns="http://www.w3.org/2000/svg" width="1200" height="630" viewBox="0 0 1200 630">
  <defs>
    <linearGradient id="bgGrad" x1="0%" y1="0%" x2="100%" y2="100%">
      <stop offset="0%" stop-color="#0a0a1a"/>
      <stop offset="50%" stop-color="#0f0f2e"/>
      <stop offset="100%" stop-color="#1a0a2e"/>
    </linearGradient>
    <linearGradient id="accentGrad" x1="0%" y1="0%" x2="100%" y2="0%">
      <stop offset="0%" stop-color="#6c63ff"/>
      <stop offset="100%" stop-color="#00d4aa"/>
    </linearGradient>
    <linearGradient id="accentGrad2" x1="0%" y1="0%" x2="100%" y2="100%">
      <stop offset="0%" stop-color="#6c63ff" stop-opacity="0.3"/>
      <stop offset="100%" stop-color="#00d4aa" stop-opacity="0.1"/>
    </linearGradient>
    <linearGradient id="textGrad" x1="0%" y1="0%" x2="100%" y2="0%">
      <stop offset="0%" stop-color="#6c63ff"/>
      <stop offset="100%" stop-color="#00d4aa"/>
    </linearGradient>
  </defs>

  <!-- Background -->
  <rect width="1200" height="630" fill="url(#bgGrad)" rx="0"/>

  <!-- Decorative glow orbs -->
  <circle cx="200" cy="150" r="250" fill="url(#accentGrad2)" opacity="0.5"/>
  <circle cx="950" cy="450" r="300" fill="url(#accentGrad2)" opacity="0.3"/>

  <!-- Grid pattern overlay -->
  <g opacity="0.03" stroke="#6c63ff" stroke-width="1">
    <line x1="0" y1="0" x2="1200" y2="0"/><line x1="0" y1="40" x2="1200" y2="40"/>
    <line x1="0" y1="80" x2="1200" y2="80"/><line x1="0" y1="120" x2="1200" y2="120"/>
    <line x1="0" y1="160" x2="1200" y2="160"/><line x1="0" y1="200" x2="1200" y2="200"/>
    <line x1="0" y1="240" x2="1200" y2="240"/><line x1="0" y1="280" x2="1200" y2="280"/>
    <line x1="0" y1="320" x2="1200" y2="320"/><line x1="0" y1="360" x2="1200" y2="360"/>
    <line x1="0" y1="400" x2="1200" y2="400"/><line x1="0" y1="440" x2="1200" y2="440"/>
    <line x1="0" y1="480" x2="1200" y2="480"/><line x1="0" y1="520" x2="1200" y2="520"/>
    <line x1="0" y1="560" x2="1200" y2="560"/><line x1="0" y1="600" x2="1200" y2="600"/>
    <line x1="0" y1="0" x2="0" y2="630"/><line x1="40" y1="0" x2="40" y2="630"/>
    <line x1="80" y1="0" x2="80" y2="630"/><line x1="120" y1="0" x2="120" y2="630"/>
  </g>

  <!-- Floating shapes (decorative) -->
  <rect x="80" y="80" width="40" height="40" rx="8" fill="#6c63ff" opacity="0.08" transform="rotate(15 100 100)"/>
  <rect x="1050" y="120" width="60" height="60" rx="12" fill="#00d4aa" opacity="0.06" transform="rotate(-10 1080 150)"/>
  <circle cx="100" cy="480" r="20" fill="#6c63ff" opacity="0.08"/>
  <circle cx="1100" cy="500" r="30" fill="#00d4aa" opacity="0.06"/>

  <!-- Accent line at top -->
  <rect x="0" y="0" width="1200" height="4" fill="url(#accentGrad)"/>

  <!-- Left content area -->
  <g transform="translate(80, 0)">
    <!-- Badge -->
    <g transform="translate(0, 140)">
      <rect x="0" y="0" width="180" height="32" rx="16" fill="#6c63ff" opacity="0.15"/>
      <text x="90" y="21" font-family="'Inter', 'Segoe UI', Arial, sans-serif" font-size="13" fill="#6c63ff" text-anchor="middle" font-weight="600">FULL STACK JAVA DEVELOPER</text>
    </g>

    <!-- Name -->
    <text x="0" y="225" font-family="'Inter', 'Segoe UI', Arial, sans-serif" font-size="58" fill="#ffffff" font-weight="800">Suraj Dobale</text>

    <!-- Title -->
    <text x="0" y="280" font-family="'Inter', 'Segoe UI', Arial, sans-serif" font-size="26" fill="#a0a0cc" font-weight="400">Spring Boot · Hibernate · MySQL · React</text>

    <!-- Divider -->
    <rect x="0" y="310" width="80" height="4" rx="2" fill="url(#accentGrad)"/>

    <!-- Description -->
    <text x="0" y="355" font-family="'Inter', 'Segoe UI', Arial, sans-serif" font-size="16" fill="#8888bb" font-weight="400">
      <tspan x="0" dy="0">PG-DAC Certified developer building</tspan>
      <tspan x="0" dy="24">scalable, full-stack web applications.</tspan>
    </text>

    <!-- Stats row -->
    <g transform="translate(0, 420)">
      <g>
        <text x="0" y="0" font-family="'Inter', 'Segoe UI', Arial, sans-serif" font-size="28" fill="url(#textGrad)" font-weight="700">4+</text>
        <text x="0" y="22" font-family="'Inter', 'Segoe UI', Arial, sans-serif" font-size="12" fill="#666699" font-weight="500">PROJECTS</text>
      </g>
      <g transform="translate(100, 0)">
        <text x="0" y="0" font-family="'Inter', 'Segoe UI', Arial, sans-serif" font-size="28" fill="url(#textGrad)" font-weight="700">5+</text>
        <text x="0" y="22" font-family="'Inter', 'Segoe UI', Arial, sans-serif" font-size="12" fill="#666699" font-weight="500">TECHNOLOGIES</text>
      </g>
      <g transform="translate(210, 0)">
        <text x="0" y="0" font-family="'Inter', 'Segoe UI', Arial, sans-serif" font-size="28" fill="url(#textGrad)" font-weight="700">PG-DAC</text>
        <text x="0" y="22" font-family="'Inter', 'Segoe UI', Arial, sans-serif" font-size="12" fill="#666699" font-weight="500">CERTIFIED</text>
      </g>
    </g>
  </g>

  <!-- Right content area - avatar placeholder with gradient border -->
  <g transform="translate(820, 140)">
    <!-- Outer ring -->
    <circle cx="150" cy="150" r="148" fill="none" stroke="url(#accentGrad)" stroke-width="3" opacity="0.3"/>
    <circle cx="150" cy="150" r="138" fill="none" stroke="url(#accentGrad)" stroke-width="1" opacity="0.15"/>

    <!-- Inner circle with glow -->
    <circle cx="150" cy="150" r="125" fill="#12122a" stroke="url(#accentGrad)" stroke-width="2"/>
    <circle cx="150" cy="150" r="125" fill="url(#accentGrad2)" opacity="0.3"/>

    <!-- Avatar placeholder text -->
    <circle cx="150" cy="130" r="40" fill="#6c63ff" opacity="0.15"/>
    <text x="150" y="142" font-family="'Arial', sans-serif" font-size="40" fill="#6c63ff" text-anchor="middle">SD</text>

    <!-- Small decorative dots around avatar -->
    <circle cx="150" cy="0" r="4" fill="#6c63ff" opacity="0.4"/>
    <circle cx="300" cy="150" r="4" fill="#00d4aa" opacity="0.4"/>
    <circle cx="150" cy="300" r="4" fill="#6c63ff" opacity="0.4"/>
    <circle cx="0" cy="150" r="4" fill="#00d4aa" opacity="0.4"/>
  </g>

  <!-- Bottom bar -->
  <rect x="80" y="540" width="1040" height="1" fill="#ffffff" opacity="0.06"/>

  <!-- Portfolio URL -->
  <text x="80" y="580" font-family="'Fira Code', 'Consolas', monospace" font-size="14" fill="#555588" font-weight="400">SURYaDob.github.io/resume-porfolio</text>

  <!-- Email -->
  <text x="1060" y="580" font-family="'Inter', 'Segoe UI', Arial, sans-serif" font-size="14" fill="#555588" text-anchor="end" font-weight="400">surajdobale29@gmail.com</text>

  <!-- Bottom accent dots -->
  <circle cx="1200" cy="630" r="3" fill="url(#accentGrad)"/>
</svg>
